<svg width="14" height="14" viewBox="0 0 14 14" fill="none" xmlns="http://www.w3.org/2000/svg">
<path d="M7 1.1665C3.7835 1.1665 1.16666 3.78334 1.16666 6.99984C1.16666 10.2163 3.7835 12.8332 7 12.8332C10.2165 12.8332 12.8333 10.2163 12.8333 6.99984C12.8333 3.78334 10.2165 1.1665 7 1.1665ZM7 11.6665C4.42691 11.6665 2.33333 9.57292 2.33333 6.99984C2.33333 4.42675 4.42691 2.33317 7 2.33317C9.57308 2.33317 11.6667 4.42675 11.6667 6.99984C11.6667 9.57292 9.57308 11.6665 7 11.6665Z" fill="white"/>
<path d="M7.58333 4.0835H6.41666V7.5835H9.91666V6.41683H7.58333V4.0835Z" fill="white"/>
</svg>
