<svg width="309" height="110" viewBox="0 0 309 110" fill="none" xmlns="http://www.w3.org/2000/svg">
<g filter="url(#filter0_d_54_66)">
<circle cx="59.7746" cy="58.4726" r="30.5273" stroke="white" stroke-width="14" shape-rendering="crispEdges"/>
</g>
<g filter="url(#filter1_d_54_66)">
<path d="M18.8006 31.6425C24.1897 34.2267 29.5808 32.8941 31.4356 29.0261C33.2904 25.1581 30.4252 19.9275 25.036 17.3433C17.1878 13.5799 5.49989 16.2875 4.17917 19.0418C2.85845 21.7961 13.4114 29.0583 18.8006 31.6425Z" fill="white"/>
</g>
<g filter="url(#filter2_d_54_66)">
<path d="M28.9553 17.1155C30.3439 21.4439 33.8977 23.7263 37.0043 22.7296C40.111 21.733 41.5037 17.4162 40.1152 13.0879C38.093 6.78445 30.4885 1.74134 28.2764 2.451C26.0643 3.16066 27.5667 12.7871 28.9553 17.1155Z" fill="white"/>
</g>
<g filter="url(#filter3_d_54_66)">
<path d="M125.488 63.364C122.056 63.364 118.901 62.5667 116.024 60.972C113.181 59.3773 110.911 57.1587 109.212 54.316C107.548 51.4387 106.716 48.2147 106.716 44.644C106.716 41.0733 107.548 37.8667 109.212 35.024C110.911 32.1813 113.181 29.9627 116.024 28.368C118.901 26.7733 122.056 25.976 125.488 25.976C128.92 25.976 132.057 26.7733 134.9 28.368C137.777 29.9627 140.031 32.1813 141.66 35.024C143.324 37.8667 144.156 41.0733 144.156 44.644C144.156 48.2147 143.324 51.4387 141.66 54.316C139.996 57.1587 137.743 59.3773 134.9 60.972C132.057 62.5667 128.92 63.364 125.488 63.364ZM125.488 55.252C128.4 55.252 130.723 54.2813 132.456 52.34C134.224 50.3987 135.108 47.8333 135.108 44.644C135.108 41.42 134.224 38.8547 132.456 36.948C130.723 35.0067 128.4 34.036 125.488 34.036C122.541 34.036 120.184 34.9893 118.416 36.896C116.683 38.8027 115.816 41.3853 115.816 44.644C115.816 47.868 116.683 50.4507 118.416 52.392C120.184 54.2987 122.541 55.252 125.488 55.252ZM157.995 38.82C159.035 37.2253 160.335 35.9773 161.895 35.076C163.455 34.14 165.188 33.672 167.095 33.672V43.084H164.651C162.432 43.084 160.768 43.5693 159.659 44.54C158.55 45.476 157.995 47.14 157.995 49.532V63H149.103V33.984H157.995V38.82ZM169.577 48.44C169.577 45.4587 170.132 42.8413 171.241 40.588C172.385 38.3347 173.928 36.6013 175.869 35.388C177.81 34.1747 179.977 33.568 182.369 33.568C184.414 33.568 186.2 33.984 187.725 34.816C189.285 35.648 190.481 36.74 191.313 38.092V33.984H200.205V63H191.313V58.892C190.446 60.244 189.233 61.336 187.673 62.168C186.148 63 184.362 63.416 182.317 63.416C179.96 63.416 177.81 62.8093 175.869 61.596C173.928 60.348 172.385 58.5973 171.241 56.344C170.132 54.056 169.577 51.4213 169.577 48.44ZM191.313 48.492C191.313 46.2733 190.689 44.5227 189.441 43.24C188.228 41.9573 186.737 41.316 184.969 41.316C183.201 41.316 181.693 41.9573 180.445 43.24C179.232 44.488 178.625 46.2213 178.625 48.44C178.625 50.6587 179.232 52.4267 180.445 53.744C181.693 55.0267 183.201 55.668 184.969 55.668C186.737 55.668 188.228 55.0267 189.441 53.744C190.689 52.4613 191.313 50.7107 191.313 48.492ZM224.318 33.672C227.715 33.672 230.419 34.7813 232.43 37C234.475 39.184 235.498 42.2 235.498 46.048V63H226.658V47.244C226.658 45.3027 226.155 43.7947 225.15 42.72C224.145 41.6453 222.793 41.108 221.094 41.108C219.395 41.108 218.043 41.6453 217.038 42.72C216.033 43.7947 215.53 45.3027 215.53 47.244V63H206.638V33.984H215.53V37.832C216.431 36.5493 217.645 35.544 219.17 34.816C220.695 34.0533 222.411 33.672 224.318 33.672ZM252.701 33.568C254.746 33.568 256.532 33.984 258.057 34.816C259.617 35.648 260.813 36.74 261.645 38.092V33.984H270.537V62.948C270.537 65.6173 270 68.0267 268.925 70.176C267.885 72.36 266.273 74.0933 264.089 75.376C261.94 76.6587 259.253 77.3 256.029 77.3C251.73 77.3 248.246 76.2773 245.577 74.232C242.908 72.2213 241.382 69.4827 241.001 66.016H249.789C250.066 67.1253 250.725 67.992 251.765 68.616C252.805 69.2747 254.088 69.604 255.613 69.604C257.45 69.604 258.906 69.0667 259.981 67.992C261.09 66.952 261.645 65.2707 261.645 62.948V58.84C260.778 60.192 259.582 61.3013 258.057 62.168C256.532 63 254.746 63.416 252.701 63.416C250.309 63.416 248.142 62.8093 246.201 61.596C244.26 60.348 242.717 58.5973 241.573 56.344C240.464 54.056 239.909 51.4213 239.909 48.44C239.909 45.4587 240.464 42.8413 241.573 40.588C242.717 38.3347 244.26 36.6013 246.201 35.388C248.142 34.1747 250.309 33.568 252.701 33.568ZM261.645 48.492C261.645 46.2733 261.021 44.5227 259.773 43.24C258.56 41.9573 257.069 41.316 255.301 41.316C253.533 41.316 252.025 41.9573 250.777 43.24C249.564 44.488 248.957 46.2213 248.957 48.44C248.957 50.6587 249.564 52.4267 250.777 53.744C252.025 55.0267 253.533 55.668 255.301 55.668C257.069 55.668 258.56 55.0267 259.773 53.744C261.021 52.4613 261.645 50.7107 261.645 48.492ZM304.322 48.024C304.322 48.856 304.27 49.7227 304.166 50.624H284.042C284.181 52.4267 284.753 53.8133 285.758 54.784C286.798 55.72 288.063 56.188 289.554 56.188C291.773 56.188 293.315 55.252 294.182 53.38H303.646C303.161 55.2867 302.277 57.0027 300.994 58.528C299.746 60.0533 298.169 61.2493 296.262 62.116C294.355 62.9827 292.223 63.416 289.866 63.416C287.023 63.416 284.493 62.8093 282.274 61.596C280.055 60.3827 278.322 58.6493 277.074 56.396C275.826 54.1427 275.202 51.508 275.202 48.492C275.202 45.476 275.809 42.8413 277.022 40.588C278.27 38.3347 280.003 36.6013 282.222 35.388C284.441 34.1747 286.989 33.568 289.866 33.568C292.674 33.568 295.17 34.1573 297.354 35.336C299.538 36.5147 301.237 38.196 302.45 40.38C303.698 42.564 304.322 45.112 304.322 48.024ZM295.222 45.684C295.222 44.1587 294.702 42.9453 293.662 42.044C292.622 41.1427 291.322 40.692 289.762 40.692C288.271 40.692 287.006 41.1253 285.966 41.992C284.961 42.8587 284.337 44.0893 284.094 45.684H295.222Z" fill="white"/>
</g>
<g filter="url(#filter4_d_54_66)">
<path d="M135.852 70.728V96H129.696V80.844L124.044 96H119.076L113.388 80.808V96H107.232V70.728H114.504L121.596 88.224L128.616 70.728H135.852ZM152.231 96.252C149.855 96.252 147.671 95.7 145.679 94.596C143.711 93.492 142.139 91.956 140.963 89.988C139.811 87.996 139.235 85.764 139.235 83.292C139.235 80.82 139.811 78.6 140.963 76.632C142.139 74.664 143.711 73.128 145.679 72.024C147.671 70.92 149.855 70.368 152.231 70.368C154.607 70.368 156.779 70.92 158.747 72.024C160.739 73.128 162.299 74.664 163.427 76.632C164.579 78.6 165.155 80.82 165.155 83.292C165.155 85.764 164.579 87.996 163.427 89.988C162.275 91.956 160.715 93.492 158.747 94.596C156.779 95.7 154.607 96.252 152.231 96.252ZM152.231 90.636C154.247 90.636 155.855 89.964 157.055 88.62C158.279 87.276 158.891 85.5 158.891 83.292C158.891 81.06 158.279 79.284 157.055 77.964C155.855 76.62 154.247 75.948 152.231 75.948C150.191 75.948 148.559 76.608 147.335 77.928C146.135 79.248 145.535 81.036 145.535 83.292C145.535 85.524 146.135 87.312 147.335 88.656C148.559 89.976 150.191 90.636 152.231 90.636ZM192.304 70.728L183.34 96H175.636L166.672 70.728H173.224L179.488 89.808L185.788 70.728H192.304ZM201.033 70.728V96H194.877V70.728H201.033ZM211.65 75.66V80.772H219.894V85.524H211.65V91.068H220.974V96H205.494V70.728H220.974V75.66H211.65ZM234.114 96.252C232.266 96.252 230.61 95.952 229.146 95.352C227.682 94.752 226.506 93.864 225.618 92.688C224.754 91.512 224.298 90.096 224.25 88.44H230.802C230.898 89.376 231.222 90.096 231.774 90.6C232.326 91.08 233.046 91.32 233.934 91.32C234.846 91.32 235.566 91.116 236.094 90.708C236.622 90.276 236.886 89.688 236.886 88.944C236.886 88.32 236.67 87.804 236.238 87.396C235.83 86.988 235.314 86.652 234.69 86.388C234.09 86.124 233.226 85.824 232.098 85.488C230.466 84.984 229.134 84.48 228.102 83.976C227.07 83.472 226.182 82.728 225.438 81.744C224.694 80.76 224.322 79.476 224.322 77.892C224.322 75.54 225.174 73.704 226.878 72.384C228.582 71.04 230.802 70.368 233.538 70.368C236.322 70.368 238.566 71.04 240.27 72.384C241.974 73.704 242.886 75.552 243.006 77.928H236.346C236.298 77.112 235.998 76.476 235.446 76.02C234.894 75.54 234.186 75.3 233.322 75.3C232.578 75.3 231.978 75.504 231.522 75.912C231.066 76.296 230.838 76.86 230.838 77.604C230.838 78.42 231.222 79.056 231.99 79.512C232.758 79.968 233.958 80.46 235.59 80.988C237.222 81.54 238.542 82.068 239.55 82.572C240.582 83.076 241.47 83.808 242.214 84.768C242.958 85.728 243.33 86.964 243.33 88.476C243.33 89.916 242.958 91.224 242.214 92.4C241.494 93.576 240.438 94.512 239.046 95.208C237.654 95.904 236.01 96.252 234.114 96.252Z" fill="white"/>
</g>
<defs>
<filter id="filter0_d_54_66" x="18.2473" y="20.9453" width="83.0546" height="83.0544" filterUnits="userSpaceOnUse" color-interpolation-filters="sRGB">
<feFlood flood-opacity="0" result="BackgroundImageFix"/>
<feColorMatrix in="SourceAlpha" type="matrix" values="0 0 0 0 0 0 0 0 0 0 0 0 0 0 0 0 0 0 127 0" result="hardAlpha"/>
<feOffset dy="4"/>
<feGaussianBlur stdDeviation="2"/>
<feComposite in2="hardAlpha" operator="out"/>
<feColorMatrix type="matrix" values="0 0 0 0 0 0 0 0 0 0 0 0 0 0 0 0 0 0 0.25 0"/>
<feBlend mode="normal" in2="BackgroundImageFix" result="effect1_dropShadow_54_66"/>
<feBlend mode="normal" in="SourceGraphic" in2="effect1_dropShadow_54_66" result="shape"/>
</filter>
<filter id="filter1_d_54_66" x="0.0658722" y="15.4944" width="35.9343" height="25.4814" filterUnits="userSpaceOnUse" color-interpolation-filters="sRGB">
<feFlood flood-opacity="0" result="BackgroundImageFix"/>
<feColorMatrix in="SourceAlpha" type="matrix" values="0 0 0 0 0 0 0 0 0 0 0 0 0 0 0 0 0 0 127 0" result="hardAlpha"/>
<feOffset dy="4"/>
<feGaussianBlur stdDeviation="2"/>
<feComposite in2="hardAlpha" operator="out"/>
<feColorMatrix type="matrix" values="0 0 0 0 0 0 0 0 0 0 0 0 0 0 0 0 0 0 0.25 0"/>
<feBlend mode="normal" in2="BackgroundImageFix" result="effect1_dropShadow_54_66"/>
<feBlend mode="normal" in="SourceGraphic" in2="effect1_dropShadow_54_66" result="shape"/>
</filter>
<filter id="filter2_d_54_66" x="23.1525" y="2.38428" width="21.5005" height="28.5771" filterUnits="userSpaceOnUse" color-interpolation-filters="sRGB">
<feFlood flood-opacity="0" result="BackgroundImageFix"/>
<feColorMatrix in="SourceAlpha" type="matrix" values="0 0 0 0 0 0 0 0 0 0 0 0 0 0 0 0 0 0 127 0" result="hardAlpha"/>
<feOffset dy="4"/>
<feGaussianBlur stdDeviation="2"/>
<feComposite in2="hardAlpha" operator="out"/>
<feColorMatrix type="matrix" values="0 0 0 0 0 0 0 0 0 0 0 0 0 0 0 0 0 0 0.25 0"/>
<feBlend mode="normal" in2="BackgroundImageFix" result="effect1_dropShadow_54_66"/>
<feBlend mode="normal" in="SourceGraphic" in2="effect1_dropShadow_54_66" result="shape"/>
</filter>
<filter id="filter3_d_54_66" x="102.716" y="25.9761" width="205.606" height="59.324" filterUnits="userSpaceOnUse" color-interpolation-filters="sRGB">
<feFlood flood-opacity="0" result="BackgroundImageFix"/>
<feColorMatrix in="SourceAlpha" type="matrix" values="0 0 0 0 0 0 0 0 0 0 0 0 0 0 0 0 0 0 127 0" result="hardAlpha"/>
<feOffset dy="4"/>
<feGaussianBlur stdDeviation="2"/>
<feComposite in2="hardAlpha" operator="out"/>
<feColorMatrix type="matrix" values="0 0 0 0 0 0 0 0 0 0 0 0 0 0 0 0 0 0 0.25 0"/>
<feBlend mode="normal" in2="BackgroundImageFix" result="effect1_dropShadow_54_66"/>
<feBlend mode="normal" in="SourceGraphic" in2="effect1_dropShadow_54_66" result="shape"/>
</filter>
<filter id="filter4_d_54_66" x="103.232" y="70.3679" width="144.098" height="33.884" filterUnits="userSpaceOnUse" color-interpolation-filters="sRGB">
<feFlood flood-opacity="0" result="BackgroundImageFix"/>
<feColorMatrix in="SourceAlpha" type="matrix" values="0 0 0 0 0 0 0 0 0 0 0 0 0 0 0 0 0 0 127 0" result="hardAlpha"/>
<feOffset dy="4"/>
<feGaussianBlur stdDeviation="2"/>
<feComposite in2="hardAlpha" operator="out"/>
<feColorMatrix type="matrix" values="0 0 0 0 0 0 0 0 0 0 0 0 0 0 0 0 0 0 0.25 0"/>
<feBlend mode="normal" in2="BackgroundImageFix" result="effect1_dropShadow_54_66"/>
<feBlend mode="normal" in="SourceGraphic" in2="effect1_dropShadow_54_66" result="shape"/>
</filter>
</defs>
</svg>
